<svg width="858" height="734" viewBox="0 0 858 734" fill="none" xmlns="http://www.w3.org/2000/svg">
<g id="ActionGroup">
<g id="Swords">
<path id="SwordLeft" d="M408.793 325.138C409.306 325.395 409.949 325.523 410.72 325.267L429.217 317.303C429.602 317.174 429.987 316.789 430.244 316.532L508.215 180.757L513.867 184.097C514.381 184.354 514.895 184.354 515.408 184.354L534.034 179.344C534.805 179.088 535.447 178.445 535.575 177.546C535.704 176.647 535.318 176.005 534.548 175.491L512.582 162.774L528.382 135.414L534.419 131.432C535.062 131.046 535.319 130.532 535.319 129.762L535.961 118.329C535.961 117.559 535.575 116.916 534.933 116.531L526.07 111.265C525.556 111.008 525.042 111.008 524.528 111.008C524.272 111.008 524.143 111.136 524.015 111.265L514.381 117.559C513.738 117.944 513.482 118.458 513.482 119.229L513.096 126.294L497.296 153.654L475.331 140.937C474.689 140.552 473.661 140.552 473.147 141.066C472.377 141.579 472.248 142.478 472.505 143.249L477.515 161.875C477.643 162.517 478.029 162.902 478.414 163.031L484.066 166.371L405.71 302.017C405.581 302.402 405.453 302.787 405.453 303.301L407.765 323.34C407.765 324.367 408.15 324.753 408.793 325.138ZM520.675 121.027L525.428 117.816L529.923 120.256L529.538 126.037L524.785 129.248L520.418 126.679L520.675 121.027ZM485.736 157.508L488.176 156.865L514.895 172.28L515.408 174.592L513.225 175.234L486.507 159.82L485.736 157.508ZM410.976 301.117L488.305 167.013L489.846 167.784L413.16 300.732L414.701 314.605L427.547 308.953L504.361 176.133L505.774 177.032L428.317 311.008L412.775 317.816L410.976 301.117Z" fill="#BDBDBD"/>
<path id="SwordCenter" d="M371.541 485.704C372.44 486.604 373.853 486.989 375.266 486.86L417.27 480.566C418.17 480.438 419.069 480.052 419.711 479.41L653.495 245.626L663.257 255.389C664.028 256.16 665.184 256.545 666.34 256.673L707.188 256.673C708.986 256.673 710.528 255.646 711.17 253.976C711.812 252.306 711.555 250.508 710.271 249.223L672.377 211.33L719.648 164.059L734.163 159.306C735.448 158.792 736.475 157.765 736.861 156.609L744.439 133.616C744.953 132.074 744.568 130.404 743.412 129.248L727.997 113.834C727.098 112.935 726.071 112.678 724.915 112.55C724.401 112.55 724.015 112.678 723.63 112.806L700.508 120.514C699.224 121.027 698.196 122.055 697.811 123.211L693.058 137.469L645.788 184.74L607.894 146.846C606.738 145.69 604.811 145.305 603.141 145.947C601.471 146.589 600.444 148.131 600.444 149.929L600.444 190.777C600.572 191.933 600.958 193.089 601.728 193.86L611.491 203.622L377.707 437.406C377.065 438.048 376.679 438.948 376.551 439.847L370.385 481.979C370.257 483.392 370.642 484.805 371.541 485.704ZM711.684 130.404L723.245 126.551L730.952 134.258L727.098 145.819L715.537 149.672L707.83 141.965L711.684 130.404ZM620.482 185.896L625.621 185.896L671.607 231.882L671.607 237.02L666.597 237.149L620.611 191.163L620.482 185.896ZM389.525 437.663L620.611 206.577L623.18 209.146L394.021 438.305L389.653 467.593L418.94 463.225L648.1 234.066L650.669 236.635L419.583 467.721L384.258 472.988L389.525 437.663Z" fill="#BDBDBD"/>
<path id="SwordRight" d="M532.235 448.582C532.492 449.095 533.134 449.481 533.777 449.609L553.815 451.921C554.329 451.921 554.714 451.793 555.1 451.664L690.617 373.437L693.957 379.089C694.214 379.603 694.728 379.859 695.242 380.116L713.867 385.126C714.638 385.383 715.537 384.998 715.922 384.355C716.436 383.585 716.436 382.814 716.179 382.043L703.463 360.078L730.823 344.278L738.016 343.764C738.658 343.636 739.172 343.379 739.558 342.737L745.852 333.103C746.237 332.46 746.237 331.69 745.98 330.919L740.842 321.927C740.585 321.414 740.072 321.157 739.686 321.028C739.429 321.028 739.301 320.9 739.044 320.9L727.612 321.542C726.969 321.671 726.455 321.927 725.942 322.441L721.96 328.478L694.599 344.278L681.883 322.313C681.497 321.67 680.598 321.285 679.827 321.285C678.928 321.414 678.414 321.927 678.157 322.698L673.148 341.324C673.019 341.966 673.019 342.48 673.405 342.865L676.744 348.517L541.227 426.745C540.841 426.873 540.585 427.387 540.328 427.644L532.364 446.141C531.85 447.426 531.85 448.196 532.235 448.582ZM731.08 327.836L736.86 327.451L739.429 331.818L736.218 336.571L730.438 336.956L727.868 332.589L731.08 327.836ZM682.525 341.966L684.965 342.608L700.38 369.326L699.737 371.767L697.425 371.253L682.011 344.535L682.525 341.966ZM546.236 428.928L680.213 351.471L681.112 352.884L548.163 429.571L542.511 442.416L556.384 443.957L689.333 367.271L690.232 368.684L556.256 446.141L539.429 444.214L546.236 428.928Z" fill="#BDBDBD"/>
</g>
<g id="CardGroup">
<path id="Card" d="M369.397 371.123C371.936 361.439 366.224 351.597 356.544 348.898L116.446 284.603C106.766 282.063 96.9272 287.778 94.2295 297.462L0.60255 646.877C-1.93649 656.561 3.77635 666.403 13.4564 669.102L253.554 733.397C263.234 735.937 273.073 730.222 275.771 720.538L369.397 371.123Z" fill="#E0E0E0"/>
<g id="ShieldGroup">
<path id="ShieldOuter" d="M148.453 641.288L145.031 639.236C143.803 638.529 142.686 637.757 141.745 637.032C139.077 634.993 131.912 628.913 128.398 625.797C116.914 615.723 100.407 600.048 88.7697 580.666C80.99 567.708 76.7677 551.353 75.7628 530.755C75.5096 526.054 75.5037 521.136 75.846 515.271L76.2674 507.346L82.7678 502.848C96.4635 493.374 105.894 474.059 109.846 460.368C113.19 448.594 111.718 434.678 105.815 422.128L101.108 412.168L108.731 404.188C116.33 396.296 123.229 387.838 129.446 379.103L135.982 369.886L167.212 378.254L170.535 383.494C179.949 398.119 194.326 408.685 211.176 413.2C227.938 417.691 245.761 415.753 261.225 407.794L266.812 404.942L296.63 412.932L297.682 424.182C298.698 434.855 300.445 445.629 303.079 456.263L305.69 466.986L296.723 473.282C284.593 481.851 276.23 494.36 273.153 508.664L272.988 509.282L272.87 509.723L272.775 510.076C272.752 510.164 272.728 510.252 272.769 510.453L272.692 511.094C270.251 529.729 271.534 544.35 276.322 554.71L279.614 561.833L276.041 568.818C274.254 572.31 272.132 575.997 269.738 579.989C260.212 595.779 248.748 608.215 235.666 616.812C218.773 627.982 198.906 632.964 178.379 637.582C172.242 638.963 165.686 640.137 157.713 641.31C155.936 641.591 154.253 641.518 152.659 641.469L148.453 641.288ZM157.314 616.336C158.531 616.378 159.373 616.415 160.261 616.275C166.857 615.3 172.324 614.306 177.461 613.13C194.363 609.338 210.67 605.292 224.112 596.413C234.439 589.63 243.511 579.769 251.145 567.159C253.149 563.913 254.818 560.862 256.239 558.028L257.796 555.041L256.34 552.004C251.634 542.044 250.427 528.199 252.665 511.023L252.648 510.734C252.678 510.27 252.749 510.005 252.82 509.74L252.914 509.387C252.938 509.299 252.985 509.123 253.033 508.946L253.103 508.682L253.174 508.417C256.133 494.554 264.248 482.262 276.107 473.998L279.94 471.338L278.798 466.777C276.498 457.367 274.909 447.769 274.026 438.361L273.596 433.613L255.335 428.72L252.921 429.964C238.216 437.559 221.282 439.357 205.226 435.055C189.17 430.753 175.491 420.752 166.466 406.798L165.086 404.538L145.589 399.313L142.843 403.211C137.374 410.917 131.199 418.434 124.502 425.433L121.233 428.812L123.198 433.121C128.908 445.336 130.363 458.963 126.978 470.537C123.12 483.876 114.362 501.385 101.202 510.624L98.4233 512.527L98.278 515.892C98.0429 520.651 98.0205 524.616 98.2218 528.452C99.0317 544.838 102.381 557.744 108.37 567.858C117.788 583.525 131.439 596.449 140.849 604.738C144.057 607.583 149.911 612.556 151.88 614.029C152.515 614.483 153.238 614.96 154.049 615.461L155.519 616.328L157.314 616.336Z" fill="#BDBDBD"/>
<path id="ShieldInner" d="M241.929 510.51C241.982 509.957 242.036 509.404 242.178 508.875C242.208 508.41 242.326 507.969 242.444 507.528C245.662 492.694 254.409 479.814 266.538 471.245C264.343 462.147 262.748 452.926 261.929 443.63C260.871 443.346 257.077 442.33 251.52 440.841C236.814 448.436 219.45 450.78 202.159 446.147C184.956 441.537 171.002 430.802 162.065 416.871C155.977 415.24 151.743 414.106 150.596 413.798C145.239 421.44 139.247 428.628 132.797 435.41C138.595 447.648 140.501 462.058 136.738 475.044C132.526 489.705 123.398 506.832 110.038 516.112C109.887 519.853 109.823 523.618 109.96 527.343C110.54 538.939 112.549 551.202 118.65 561.252C126.172 573.763 136.866 584.666 147.891 594.333C150.795 596.908 156.19 601.474 157.918 602.788C158.312 603.082 158.794 603.4 159.364 603.742C160.005 603.82 160.582 603.785 160.782 603.744C166.001 602.968 171.268 602.015 176.47 600.951C190.458 597.796 205.894 594.179 218.082 586.098C227.826 579.727 235.468 570.617 241.439 560.681C243.102 558.006 244.587 555.284 245.985 552.539C239.952 539.765 240.13 523.927 241.929 510.51Z" fill="#BDBDBD"/>
</g>
</g>
</g>
</svg>
