<svg width="46" height="100" viewBox="0 0 46 100" fill="none" xmlns="http://www.w3.org/2000/svg">
<g id="Energy">
<path id="EnergyBorder" d="M39.9617 3.52983L26.6896 26.2266C26.1601 27.1091 26.0542 28.2033 26.4072 29.1564C26.7602 30.1447 27.5015 30.9213 28.4545 31.2743L38.8322 35.2983L24.4305 54.8535C23.7598 55.7713 23.5833 56.9361 23.901 57.995C24.254 59.054 25.0659 59.9365 26.1248 60.2894L32.5138 62.4427L17.1238 84.257L22.5244 68.0904C22.8421 67.1726 22.7362 66.1843 22.3126 65.3371C21.889 64.4899 21.1125 63.8546 20.1947 63.5722L11.5819 60.9954L18.5004 43.4169C19.1711 41.6873 18.3945 39.7105 16.7355 38.934L3.9575 32.898L11.8996 3.49454H39.9617V3.52983ZM44.1269 0H10.0641C9.53462 0 9.07576 0.352991 8.96986 0.847167L0.0394007 33.9569C-0.101793 34.4864 0.1453 35.0512 0.639476 35.2983L15.2177 42.1814L7.34615 62.1603C7.24025 62.4426 7.24025 62.7956 7.38144 63.078C7.52263 63.3604 7.76972 63.5722 8.0874 63.6781L19.1711 66.9961L8.61688 98.5175C8.44039 99.047 8.68747 99.647 9.18164 99.8941C9.35813 99.9647 9.53462 100 9.71112 100C10.0641 100 10.4171 99.8235 10.6642 99.5059L37.2438 61.8426C37.4556 61.5602 37.5262 61.1719 37.385 60.8189C37.2791 60.4659 36.9967 60.1835 36.6437 60.0777L27.2191 56.9008L43.4916 34.8394C43.7034 34.557 43.774 34.1687 43.6681 33.8511C43.5622 33.4981 43.3151 33.2157 42.9974 33.1098L29.7252 27.9562L45.1153 1.69429C45.3271 1.34131 45.3271 0.917755 45.1153 0.529474C44.9035 0.21179 44.5152 0 44.1269 0Z" fill="black"/>
<path id="EnergyFill" d="M39.9617 3.52986L26.6896 26.2266C26.1601 27.1091 26.0542 28.2033 26.4072 29.1564C26.7602 30.1447 27.5015 30.9213 28.4545 31.2743L38.8322 35.2983L24.4305 54.8535C23.7598 55.7713 23.5833 56.9361 23.901 57.995C24.254 59.054 25.0659 59.9365 26.1248 60.2894L32.5138 62.4427L17.1238 84.257L22.5244 68.0904C22.8421 67.1726 22.7362 66.1843 22.3126 65.3371C21.889 64.4899 21.1125 63.8546 20.1947 63.5722L11.5819 60.9954L18.5004 43.4169C19.1711 41.6873 18.3945 39.7105 16.7355 38.934L3.95752 32.898L11.8996 3.49457H39.9617V3.52986Z" fill="#E8DF1C"/>
</g>
</svg>
