<svg width="100" height="86" viewBox="0 0 100 86" fill="none" xmlns="http://www.w3.org/2000/svg">
<path d="M98.005 38.9816C93.172 51.6815 80.4016 61.03 69.1481 69.285C61.9162 74.5766 55.0723 79.586 52.2854 84.3132C51.9679 84.8423 51.4035 85.1598 50.8038 85.1598C50.7685 85.1598 50.7332 85.1598 50.6979 85.1598C50.0629 85.1246 49.4985 84.7365 49.2516 84.1368C46.7469 78.5277 38.3155 73.2007 29.3551 67.5916C18.3838 60.7125 7.05969 53.6218 2.57946 43.9557C-3.24133 31.2911 1.20363 12.5235 11.7516 5.32689C15.6321 2.50469 21.9821 0.740818 28.332 0.740818C37.3278 0.740818 44.8066 4.02161 49.3221 9.80711C54.1198 3.45717 61.387 0 70.03 0C75.9919 0 82.0243 1.69333 86.1871 4.5508C96.4528 11.5357 103.685 26.317 98.005 38.9816ZM7.27138 31.3264C7.27138 17.9915 18.0663 7.1613 31.4364 7.1613C37.5394 7.1613 43.0427 9.41906 47.3113 13.1585C42.9016 8.04324 36.3753 4.833 29.1081 4.833C15.7733 4.833 4.97834 15.6632 4.97834 28.9981C4.97834 36.2652 8.18859 42.7563 13.2685 47.2012C9.52913 42.9327 7.27138 37.4294 7.27138 31.3264ZM95.0418 28.9981C95.0418 15.6632 84.2116 4.833 70.8767 4.833C63.6095 4.833 57.0832 8.04324 52.6735 13.1585C56.9068 9.45434 62.4453 7.1613 68.5483 7.1613C81.8832 7.1613 92.7134 17.9915 92.7134 31.3264C92.7134 37.3941 90.4557 42.9327 86.7515 47.166C91.8315 42.7563 95.0418 36.2652 95.0418 28.9981Z" fill="black"/>
</svg>
