<svg width="84" height="100" viewBox="0 0 84 100" fill="none" xmlns="http://www.w3.org/2000/svg">
<path fill-rule="evenodd" clip-rule="evenodd" d="M9.77078 23.4133C9.38291 40.5148 13.2264 53.3145 18.6213 64.0339C21.2658 69.323 24.5451 74.2243 28.2475 78.4203C31.9852 82.6516 36.4633 86.0719 41.7172 88.4697C41.7172 88.4697 41.7524 88.4697 41.7524 88.4344C41.7524 88.4344 41.7877 88.4344 41.7877 88.4697C47.0416 86.0719 51.4845 82.6516 55.2574 78.4203C58.9598 74.2243 62.2743 69.323 64.8836 64.0339C70.2433 53.3145 74.122 40.5148 73.7341 23.4133C60.8286 22.0381 49.8272 18.4767 41.7524 11.5656C33.7129 18.4767 22.7115 22.0381 9.77078 23.4133Z" fill="black"/>
<path fill-rule="evenodd" clip-rule="evenodd" d="M82.4788 15.0917C64.9541 13.2228 51.8723 8.35683 42.4929 0.282083C42.2814 0.105778 41.9993 0 41.7524 0C41.4704 0 41.2235 0.0705176 41.012 0.282083C31.6326 8.35683 18.5508 13.1876 1.06134 15.0917C0.497161 15.1622 0.0387687 15.6206 0.0387687 16.22C-0.419623 35.4372 3.17699 51.9746 11.3575 68.3357C14.7778 75.141 18.9386 81.3822 23.7694 86.8477C28.7059 92.4189 34.5592 96.8265 41.2235 99.8942C41.3646 99.9647 41.5409 100 41.7172 100C41.7524 100 41.7524 100 41.7877 100C41.823 100 41.823 100 41.8582 100C42.0345 100 42.1756 99.9647 42.3519 99.8942C49.0162 96.8265 54.8695 92.4542 59.806 86.8477C64.6368 81.3822 68.7976 75.1763 72.2179 68.3357C80.3984 51.9746 83.995 35.402 83.5367 16.22C83.5014 15.6559 83.043 15.1622 82.4788 15.0917ZM67.9866 65.9027C64.9894 71.897 61.287 77.3978 57.0557 82.1932C52.8244 86.9887 47.7468 90.8322 41.823 93.5825C41.7877 93.5825 41.7877 93.5472 41.7524 93.5472C41.7172 93.5472 41.7172 93.5825 41.6819 93.5825C35.7581 90.8674 30.6805 87.024 26.4492 82.1932C22.2532 77.3978 18.5508 71.897 15.5183 65.9027C9.4887 53.7729 5.11634 39.2454 5.53947 19.8872C20.1728 18.3357 32.6551 14.3159 41.7524 6.45275C50.8498 14.2807 63.3321 18.3004 77.9654 19.8872C78.4238 39.2454 74.0515 53.7729 67.9866 65.9027Z" fill="black"/>
</svg>
