<svg width="78" height="100" viewBox="0 0 78 100" fill="none" xmlns="http://www.w3.org/2000/svg">
<path d="M75.2121 76.2257C71.6495 68.2892 67.7341 60.2469 63.9599 52.4515C60.2209 44.7266 56.3056 36.7548 52.8135 28.9242V7.93651L55.9528 3.0335L56.0586 2.92769C56.5525 2.43386 56.6936 1.69312 56.4467 1.0582C56.1998 0.42328 55.5648 0 54.8594 0H24.7712C24.0657 0 23.4661 0.42328 23.1839 1.0582C22.937 1.69312 23.078 2.43386 23.5719 2.92769L26.8171 7.93651V28.7831C23.5014 34.1446 9.25088 61.4815 1.91402 76.1905C-1.08422 82.1517 -0.519842 89.0652 3.32495 94.2504C5.86464 97.9894 10.2385 100 15.9881 100H61.138C66.8876 100 71.2968 98.0247 73.8012 94.2504C77.6107 89.1005 78.1751 82.1869 75.2121 76.2257ZM68.0869 90.3703C65.9352 93.4744 62.1962 95.097 57.3285 95.097H19.7624C14.8594 95.097 11.1557 93.4744 9.004 90.3703C5.72358 86.1023 5.26502 80.4233 7.8047 75.485C12.743 65.9259 20.5384 51.4286 25.1944 43.104L31.5084 28.9242V5.46737C31.5084 4.51499 32.2844 3.77423 33.2015 3.77423H46.3938C47.3462 3.77423 48.0869 4.55026 48.0869 5.46737V28.9947L53.3426 43.2451C55.4237 47.5485 57.6459 51.9577 59.7623 56.2257C62.9369 62.5749 66.2174 69.1005 69.2156 75.5555C71.8259 80.4585 71.332 86.1375 68.0869 90.3703Z" fill="black"/>
<path d="M55.9881 58.3774C54.2597 54.9559 52.4608 51.3933 50.8029 47.9012C50.5207 47.3016 49.9211 46.9488 49.2861 46.9488H29.004C28.4043 46.9488 27.8047 47.2663 27.5225 47.8307C23.8541 54.3915 17.5048 66.1376 13.4484 74.0388C11.332 78.1305 11.72 82.8571 14.436 86.4197C16.235 88.9947 19.339 90.3703 23.3955 90.3703H53.7306C57.787 90.3703 60.8911 88.9947 62.69 86.4197C65.4061 82.8924 65.7941 78.1658 63.6777 74.0741C61.2438 68.8183 58.563 63.5273 55.9881 58.3774Z" fill="black"/>
</svg>
